HIERARCHY
ROOT root
{
	OFFSET	0	13.1	24.9
	CHANNELS 6  Xposition Yposition Zposition Xrotation Yrotation Zrotation
	JOINT spine_1
	{
		OFFSET	0	9.99999	0
		CHANNELS 3  Xrotation Yrotation Zrotation
		JOINT spine_2
		{
			OFFSET	0	112	-10
			CHANNELS 3  Xrotation Yrotation Zrotation
			JOINT spine_3
			{
				OFFSET	0	206.5	19.3
				CHANNELS 3  Xrotation Yrotation Zrotation
				JOINT spine_4
				{
					OFFSET	0	110.4	14.6
					CHANNELS 3  Xrotation Yrotation Zrotation
					JOINT neck_1
					{
						OFFSET	0	71.8	-50.3
						CHANNELS 3  Xrotation Yrotation Zrotation
						JOINT neck_2
						{
							OFFSET	0	86.2	-25.8
							CHANNELS 3  Xrotation Yrotation Zrotation
							JOINT head_ee
							{
								OFFSET	0	179.8	-8.7
								CHANNELS 3  Xrotation Yrotation Zrotation
								End Site
								{
									OFFSET	1	0	0
								}
							}
						}
					}
					JOINT left_clavicle
					{
						OFFSET	-43.2	22.4	-70.8
						CHANNELS 3  Xrotation Yrotation Zrotation
						JOINT left_shoulder
						{
							OFFSET	-93.9	-5.79999	48.7
							CHANNELS 3  Xrotation Yrotation Zrotation
							JOINT left_elbow
							{
								OFFSET	-291.4	-30.8	15.2
								CHANNELS 3  Xrotation Yrotation Zrotation
								JOINT left_lowarm_twist
								{
									OFFSET	-110.7	-3.89999	13.6
									CHANNELS 3  Xrotation Yrotation Zrotation
									JOINT left_hand
									{
										OFFSET	-110.7	-3.89999	13.6
										CHANNELS 3  Xrotation Yrotation Zrotation
										JOINT left_ee
										{
											OFFSET	-80.8	-5.10001	12.1
											CHANNELS 3  Xrotation Yrotation Zrotation
											End Site
											{
												OFFSET	1	0	0
											}
										}
									}
								}
							}
						}
					}
					JOINT right_clavicle
					{
						OFFSET	43.2	22.4	-70.8
						CHANNELS 3  Xrotation Yrotation Zrotation
						JOINT right_shoulder
						{
							OFFSET	93.9	-5.79999	48.7
							CHANNELS 3  Xrotation Yrotation Zrotation
							JOINT right_elbow
							{
								OFFSET	291.4	-30.8	15.2
								CHANNELS 3  Xrotation Yrotation Zrotation
								JOINT right_lowarm_twist
								{
									OFFSET	110.7	-3.89999	13.6
									CHANNELS 3  Xrotation Yrotation Zrotation
									JOINT right_hand
									{
										OFFSET	110.7	-3.89999	13.6
										CHANNELS 3  Xrotation Yrotation Zrotation
										JOINT right_ee
										{
											OFFSET	80.8	-5.10001	12.1
											CHANNELS 3  Xrotation Yrotation Zrotation
											End Site
											{
												OFFSET	1	0	0
											}
										}
									}
								}
							}
						}
					}
				}
			}
		}
	}
	JOINT left_hip
	{
		OFFSET	-82.8	-127.5	0.300001
		CHANNELS 3  Xrotation Yrotation Zrotation
		JOINT left_knee
		{
			OFFSET	-28.2	-396.7	2.2
			CHANNELS 3  Xrotation Yrotation Zrotation
			JOINT left_ankle
			{
				OFFSET	-11.7	-411.3	35.4
				CHANNELS 3  Xrotation Yrotation Zrotation
				JOINT left_toes
				{
					OFFSET	0	-60	-88.6
					CHANNELS 3  Xrotation Yrotation Zrotation
					JOINT left_foot_ee
					{
						OFFSET	-22.5	-16.5	-42.2
						CHANNELS 3  Xrotation Yrotation Zrotation
						End Site
						{
							OFFSET	1	0	0
						}
					}
				}
			}
		}
	}
	JOINT right_hip
	{
		OFFSET	82.8	-127.5	0.300001
		CHANNELS 3  Xrotation Yrotation Zrotation
		JOINT right_knee
		{
			OFFSET	28.2	-396.7	2.2
			CHANNELS 3  Xrotation Yrotation Zrotation
			JOINT right_ankle
			{
				OFFSET	11.7	-411.3	35.4
				CHANNELS 3  Xrotation Yrotation Zrotation
				JOINT right_toes
				{
					OFFSET	0	-60	-88.6
					CHANNELS 3  Xrotation Yrotation Zrotation
					JOINT right_foot_ee
					{
						OFFSET	22.5	-16.5	-42.2
						CHANNELS 3  Xrotation Yrotation Zrotation
						End Site
						{
							OFFSET	1	0	0
						}
					}
				}
			}
		}
	}
}
MOTION
Frames: 11
Frame Time: 0.02
1372.93 705.916 -1383.38 15.5028 79.2862 -20.7746 -1.0821 0.350257 3.63787 -1.07474 0.118217 3.65276 -1.06167 -0.719523 3.58324 -1.07956 -0.144983 3.6518 -5.24541 7.29729 -5.22523 -5.07644 17.3286 -4.04799 -0.0 0.0 -0.0 -2.82625 19.8263 -1.85611 3.27365 -44.785 82.5744 3.15708 -57.392 1.72847 -20.0158 -1.11734 2.28954 3.67352 -2.00254 24.5671 -0.0 0.0 -0.0 10.3088 1.87686 -20.3837 -28.8739 4.27729 -64.1109 0.238701 6.74381 -0.0140641 16.3149 -0.28358 2.05776 -2.52309 -28.8527 2.33203 0.0 0.0 0.0 -17.7622 6.7371 8.392 -4.94713 0.171842 0.739555 35.1163 -23.5974 -5.04395 -34.2106 0.0 0.0 -0.0 0.0 -0.0 20.9832 19.6837 -0.92139 4.30072 0.200844 0.629139 -5.65277 -13.2105 -0.839742 -22.0117 0.0 0.0 0.0 0.0 0.0 
1349.21 706.666 -1386.81 12.2289 78.8393 -18.0355 -0.831471 0.384389 3.60117 -0.824271 0.154612 3.6183 -0.809462 -0.660445 3.56095 -0.827143 -0.090156 3.62048 -5.70779 7.06077 -4.83404 -5.57449 16.6026 -3.61564 -0.0 0.0 -0.0 -2.94612 21.7733 -1.653 0.919555 -45.8607 80.8691 3.06118 -56.5854 1.64805 -20.5579 -1.15843 2.34551 3.59174 -3.29636 23.4161 -0.0 0.0 -0.0 10.216 0.59554 -20.1318 -28.4303 4.26573 -63.9559 0.245053 6.92154 -0.0148197 17.4232 -0.281441 2.19931 -2.45026 -28.9148 1.90916 0.0 0.0 0.0 -19.0715 7.66597 9.78327 -3.61492 0.131867 0.539014 34.5492 -25.192 -5.0641 -34.2012 0.0 0.0 -0.0 0.0 -0.0 20.1357 19.6043 -0.768636 2.96129 0.133224 0.434804 -5.78515 -13.5311 -0.860007 -19.6296 0.0 0.0 0.0 0.0 0.0 
1325.47 707.09 -1389.17 9.35959 76.9956 -15.9099 -0.427291 0.650528 3.65645 -0.419951 0.416703 3.69037 -0.388182 -0.393512 3.69291 -0.407157 0.19424 3.70872 -6.55818 8.05665 -3.163 -6.49829 17.233 -1.59866 -0.0 0.0 -0.0 -3.05635 22.4233 -1.68056 -0.890592 -46.1711 79.5047 2.784 -54.044 1.42007 -19.4052 -1.0717 2.22604 4.07361 -7.27062 25.2042 -0.0 0.0 -0.0 10.309 0.539075 -20.3227 -28.0384 4.4132 -63.8439 0.196407 5.55721 -0.00953242 18.3086 -0.277765 2.31233 -2.37384 -28.7998 1.55791 0.0 0.0 0.0 -19.0517 7.74719 10.8148 -6.23944 0.206151 0.934909 35.4425 -24.7488 -5.13599 -35.5067 0.0 0.0 -0.0 0.0 -0.0 19.0854 19.7811 -0.0616554 0.823228 0.0347737 0.121542 1.29816 -8.34581 0.189372 -20.1511 0.0 0.0 0.0 0.0 0.0 
1299.76 704.418 -1392.77 7.42218 75.9209 -14.6939 -0.213337 0.815886 3.66265 -0.206063 0.581333 3.70706 -0.16366 -0.221379 3.74577 -0.183043 0.372551 3.73378 -8.09035 7.94583 -3.65442 -8.07278 17.4075 -1.87317 -0.0 0.0 -0.0 -3.15113 22.8194 -1.73373 -1.98497 -43.2639 76.4706 2.80441 -54.2425 1.43662 -18.2443 -0.986803 2.104 3.94676 -9.37384 23.2743 -0.0 0.0 -0.0 10.1895 0.121977 -20.0532 -27.9172 3.89281 -64.0639 0.188901 5.34608 -0.00881925 18.9884 -0.273757 2.39907 -2.33059 -28.7639 1.34385 0.0 0.0 0.0 -19.1864 7.5039 11.4219 -8.13748 0.24853 1.22308 35.8418 -25.9575 -5.24261 -36.3305 0.0 0.0 -0.0 0.0 -0.0 18.7083 19.8166 0.0715937 -0.476075 -0.01931 -0.0705068 4.04406 -6.47218 0.585921 -20.1338 0.0 0.0 0.0 0.0 0.0 
1276.81 707.378 -1399.14 7.87347 76.0352 -15.3332 -0.0154273 0.882111 3.55615 -0.0086305 0.654188 3.60498 0.0367913 -0.115457 3.66197 0.0183811 0.463941 3.63433 -7.70906 8.1986 -2.81093 -7.69672 17.2769 -1.03737 -0.0 0.0 -0.0 -2.91681 23.5243 -1.26888 -2.24448 -41.4664 74.0424 2.51852 -51.2782 1.20894 -18.2124 -0.984507 2.10062 4.0905 -11.1396 23.4704 -0.0 0.0 -0.0 10.5509 -0.528121 -20.7664 -27.2714 3.40924 -64.0517 0.173107 4.90136 -0.00740871 19.5794 -0.269438 2.47443 -2.22666 -28.5888 0.872937 0.0 0.0 0.0 -19.5898 7.70598 12.0791 -8.8874 0.262638 1.33729 35.1691 -25.5068 -5.14706 -37.1535 0.0 0.0 -0.0 0.0 -0.0 18.1426 19.7804 0.127598 -1.96899 -0.0760498 -0.292588 4.56769 -5.11874 0.661452 -20.4599 0.0 0.0 0.0 0.0 0.0 
1258.8 710.581 -1401.86 5.33713 76.457 -12.9584 0.391784 0.735234 3.51429 0.39851 0.510265 3.55389 0.433318 -0.220928 3.58349 0.415569 0.347419 3.57346 -8.90858 9.28058 -2.99833 -8.95042 19.4636 -0.775599 -0.0 0.0 -0.0 -3.5677 22.9818 -2.28086 -2.12267 -39.98 72.667 2.41414 -50.0903 1.12818 -18.1771 -0.981967 2.09689 4.14674 -12.3523 23.2772 -0.0 0.0 -0.0 10.8268 -1.12851 -21.3001 -26.3371 3.69758 -63.6493 0.190782 5.399 -0.00899541 19.4414 -0.270516 2.45684 -2.2807 -28.6134 1.15149 0.0 0.0 0.0 -18.3371 8.38191 12.2554 -9.93024 0.279769 1.49639 36.0359 -23.0133 -5.11087 -37.6305 0.0 0.0 -0.0 0.0 -0.0 17.8042 19.8609 0.671485 -4.69126 -0.164526 -0.700969 9.91103 -3.91977 1.41258 -19.1458 0.0 0.0 0.0 0.0 0.0 
1240.39 712.273 -1405.87 4.464 76.8935 -12.01 0.663681 0.817507 3.39362 0.669887 0.600037 3.43868 0.70849 -0.092692 3.48935 0.691796 0.459213 3.46028 -10.3725 9.27071 -2.69011 -10.4828 19.2738 -0.217067 -0.0 0.0 -0.0 -3.80284 23.7152 -2.44558 -3.80284 -38.6845 71.4068 2.33928 -49.2002 1.07113 -18.5301 -1.00748 2.13421 4.05343 -13.0878 22.2293 -0.0 0.0 -0.0 11.1342 -1.30241 -21.9272 -24.4699 3.22827 -63.7088 0.181994 5.15166 -0.00818739 20.5519 -0.260638 2.59834 -2.10987 -28.7444 0.168176 0.0 0.0 0.0 -16.8239 8.32422 11.5447 -11.8911 0.304126 1.79627 36.7313 -23.2694 -5.19365 -37.7378 0.0 0.0 -0.0 0.0 -0.0 17.5096 19.7273 0.707841 -8.71444 -0.259516 -1.31093 15.0133 -3.09085 2.10068 -19.3893 0.0 0.0 0.0 0.0 0.0 
1223.07 716.072 -1404.89 4.08698 77.1069 -11.5612 0.886169 0.681002 3.35357 0.892304 0.466352 3.39005 0.921873 -0.201596 3.416 0.905752 0.340108 3.40502 -10.7919 9.1869 -2.60746 -10.9186 19.0704 -0.0860179 -0.0 0.0 -0.0 -4.33282 24.4831 -2.99072 -4.85893 -37.9455 70.3499 2.26549 -48.2904 1.01566 -18.9687 -1.03949 2.18035 4.09268 -14.0219 22.0386 -0.0 0.0 -0.0 11.2852 -1.635 -22.2161 -23.2868 3.50568 -63.8775 0.188002 5.32078 -0.00873573 20.8709 -0.257293 2.63895 -2.05231 -28.7256 -0.131759 0.0 0.0 0.0 -15.8867 8.57224 11.2628 -12.5035 0.309629 1.89007 36.7034 -22.9091 -5.17336 -38.0451 0.0 0.0 -0.0 0.0 -0.0 17.489 19.548 0.988167 -11.2274 -0.297031 -1.69467 16.5169 -2.62258 2.29795 -18.4031 0.0 0.0 0.0 0.0 0.0 
1200.06 707.76 -1406.73 6.8057 75.8358 -14.7423 1.05471 0.815837 3.23981 1.06034 0.608141 3.28509 1.09695 -0.0316263 3.3407 1.08172 0.496079 3.30385 -12.0293 9.80269 -2.55178 -12.2367 20.2248 0.368689 -0.0 0.0 -0.0 -5.93352 23.2207 -5.53683 -4.74854 -36.6791 72.0986 2.27931 -48.4633 1.02599 -18.8232 -1.02883 2.16507 4.08311 -14.7736 21.5843 -0.0 0.0 -0.0 11.3873 -1.50394 -22.4402 -21.1852 4.22474 -63.9731 0.243464 6.87711 -0.0146289 20.8937 -0.257046 2.64184 -1.98591 -28.1191 -0.196592 0.0 0.0 0.0 -14.9388 8.95012 11.7296 -20.2547 0.292524 3.07831 38.7151 -21.9075 -5.32126 -37.4206 0.0 0.0 -0.0 0.0 -0.0 16.3127 19.6782 1.25499 -14.0761 -0.319162 -2.13116 20.2961 -2.27036 2.77713 -17.5985 0.0 0.0 0.0 0.0 0.0 
1184.64 704.263 -1403.63 8.21397 76.7029 -16.3858 1.15 0.657265 3.23484 1.15571 0.450205 3.27005 1.18281 -0.179083 3.29601 1.16782 0.34342 3.28297 -13.4209 10.3216 -3.56169 -13.7302 21.8549 -0.159227 -0.0 0.0 -0.0 -5.97992 23.724 -5.45614 -4.68576 -31.4929 75.3929 2.15558 -46.8723 0.934506 -20.0462 -1.11963 2.29269 3.8901 -15.9044 19.6294 -0.0 0.0 -0.0 10.8135 -1.77762 -21.2261 -18.8041 4.97018 -64.4989 0.383318 10.7518 -0.0360717 21.0252 -0.255594 2.65859 -1.92783 -28.1154 -0.509328 0.0 0.0 0.0 -12.7783 10.2124 10.7062 -27.861 0.120033 4.23198 38.0883 -21.8715 -5.26002 -35.4494 0.0 0.0 -0.0 0.0 -0.0 15.2917 18.3817 1.85474 -15.0923 -0.321802 -2.28705 26.034 -4.7524 3.45131 -18.4423 0.0 0.0 0.0 0.0 0.0 
1164.55 703.063 -1406.29 8.67717 73.799 -17.032 1.23021 0.657708 3.24489 1.23595 0.450009 3.28011 1.26299 -0.176557 3.3061 1.24791 0.347505 3.29253 -13.6622 10.6534 -2.50252 -14.0043 21.8381 1.00683 -0.0 0.0 -0.0 -8.23574 21.7579 -9.35785 -5.72901 -32.5145 76.285 2.12182 -46.421 0.909959 -18.0943 -0.97602 2.08811 3.92948 -16.2536 19.7277 -0.0 0.0 -0.0 10.6323 -1.42651 -20.8769 -17.8135 7.85701 -65.7145 0.549251 15.2209 -0.0733884 21.2614 -0.252891 2.68863 -1.91163 -27.4002 -0.256052 0.0 0.0 0.0 -7.89906 10.2431 9.68173 -39.2969 -0.422642 5.89961 38.3666 -19.3118 -5.1749 -35.1074 0.0 0.0 -0.0 0.0 -0.0 13.4971 19.2184 1.83702 -16.6412 -0.320507 -2.52468 28.2237 -1.64075 3.70755 -15.9251 0.0 0.0 0.0 0.0 0.0 
